<svg width="90" height="92" viewBox="0 0 90 92" fill="none" xmlns="http://www.w3.org/2000/svg">
<path d="M25.708 37.6042C25.708 39.179 25.0824 40.6892 23.969 41.8027C22.8555 42.9162 21.3452 43.5417 19.7705 43.5417C18.1958 43.5417 16.6856 42.9162 15.5721 41.8027C14.4586 40.6892 13.833 39.179 13.833 37.6042C13.833 36.0295 14.4586 34.5193 15.5721 33.4058C16.6856 32.2923 18.1958 31.6667 19.7705 31.6667C21.3452 31.6667 22.8555 32.2923 23.969 33.4058C25.0824 34.5193 25.708 36.0295 25.708 37.6042Z" fill="white"/>
<path d="M41.5415 37.6042C41.5415 39.179 40.9159 40.6892 39.8025 41.8027C38.689 42.9162 37.1787 43.5417 35.604 43.5417C34.0293 43.5417 32.5191 42.9162 31.4056 41.8027C30.2921 40.6892 29.6665 39.179 29.6665 37.6042C29.6665 36.0295 30.2921 34.5193 31.4056 33.4058C32.5191 32.2923 34.0293 31.6667 35.604 31.6667C37.1787 31.6667 38.689 32.2923 39.8025 33.4058C40.9159 34.5193 41.5415 36.0295 41.5415 37.6042Z" fill="white"/>
<path d="M41.5415 53.4375C41.5415 55.0122 40.9159 56.5224 39.8025 57.6359C38.689 58.7494 37.1787 59.375 35.604 59.375C34.0293 59.375 32.5191 58.7494 31.4056 57.6359C30.2921 56.5224 29.6665 55.0122 29.6665 53.4375C29.6665 51.8628 30.2921 50.3526 31.4056 49.2391C32.5191 48.1256 34.0293 47.5 35.604 47.5C37.1787 47.5 38.689 48.1256 39.8025 49.2391C40.9159 50.3526 41.5415 51.8628 41.5415 53.4375Z" fill="white"/>
<path d="M57.375 37.6042C57.375 39.179 56.7494 40.6892 55.6359 41.8027C54.5224 42.9162 53.0122 43.5417 51.4375 43.5417C49.8628 43.5417 48.3526 42.9162 47.2391 41.8027C46.1256 40.6892 45.5 39.179 45.5 37.6042C45.5 36.0295 46.1256 34.5193 47.2391 33.4058C48.3526 32.2923 49.8628 31.6667 51.4375 31.6667C53.0122 31.6667 54.5224 32.2923 55.6359 33.4058C56.7494 34.5193 57.375 36.0295 57.375 37.6042Z" fill="white"/>
<path d="M57.375 53.4375C57.375 55.0122 56.7494 56.5224 55.6359 57.6359C54.5224 58.7494 53.0122 59.375 51.4375 59.375C49.8628 59.375 48.3526 58.7494 47.2391 57.6359C46.1256 56.5224 45.5 55.0122 45.5 53.4375C45.5 51.8628 46.1256 50.3526 47.2391 49.2391C48.3526 48.1256 49.8628 47.5 51.4375 47.5C53.0122 47.5 54.5224 48.1256 55.6359 49.2391C56.7494 50.3526 57.375 51.8628 57.375 53.4375Z" fill="white"/>
<path d="M73.208 53.4375C73.208 55.0122 72.5825 56.5224 71.469 57.6359C70.3555 58.7494 68.8452 59.375 67.2705 59.375C65.6958 59.375 64.1856 58.7494 63.0721 57.6359C61.9586 56.5224 61.333 55.0122 61.333 53.4375C61.333 51.8628 61.9586 50.3526 63.0721 49.2391C64.1856 48.1256 65.6958 47.5 67.2705 47.5C68.8452 47.5 70.3555 48.1256 71.469 49.2391C72.5825 50.3526 73.208 51.8628 73.208 53.4375Z" fill="white"/>
<path d="M73.208 37.6042C73.208 39.179 72.5825 40.6892 71.469 41.8027C70.3555 42.9162 68.8452 43.5417 67.2705 43.5417C65.6958 43.5417 64.1856 42.9162 63.0721 41.8027C61.9586 40.6892 61.333 39.179 61.333 37.6042C61.333 36.0295 61.9586 34.5193 63.0721 33.4058C64.1856 32.2923 65.6958 31.6667 67.2705 31.6667C68.8452 31.6667 70.3555 32.2923 71.469 33.4058C72.5825 34.5193 73.208 36.0295 73.208 37.6042Z" fill="white"/>
<path d="M89.0415 53.4375C89.0415 54.2172 88.8879 54.9893 88.5895 55.7097C88.2912 56.4301 87.8538 57.0846 87.3025 57.6359C86.7511 58.1873 86.0966 58.6246 85.3762 58.923C84.6558 59.2214 83.8837 59.375 83.104 59.375C82.3243 59.375 81.5522 59.2214 80.8318 58.923C80.1115 58.6246 79.4569 58.1873 78.9056 57.6359C78.3542 57.0846 77.9169 56.4301 77.6185 55.7097C77.3201 54.9893 77.1665 54.2172 77.1665 53.4375C77.1665 52.6578 77.3201 51.8857 77.6185 51.1653C77.9169 50.4449 78.3542 49.7904 78.9056 49.2391C79.4569 48.6877 80.1115 48.2504 80.8318 47.952C81.5522 47.6536 82.3243 47.5 83.104 47.5C83.8837 47.5 84.6558 47.6536 85.3762 47.952C86.0966 48.2504 86.7511 48.6877 87.3025 49.2391C87.8538 49.7904 88.2912 50.4449 88.5895 51.1653C88.8879 51.8857 89.0415 52.6578 89.0415 53.4375Z" fill="white"/>
<path d="M89.0415 37.6042C89.0415 38.384 88.8879 39.1561 88.5895 39.8764C88.2912 40.5968 87.8538 41.2513 87.3025 41.8027C86.7511 42.354 86.0966 42.7914 85.3762 43.0898C84.6558 43.3882 83.8837 43.5417 83.104 43.5417C82.3243 43.5417 81.5522 43.3882 80.8318 43.0898C80.1115 42.7914 79.4569 42.354 78.9056 41.8027C78.3542 41.2513 77.9169 40.5968 77.6185 39.8764C77.3201 39.1561 77.1665 38.384 77.1665 37.6042C77.1665 36.8245 77.3201 36.0524 77.6185 35.3321C77.9169 34.6117 78.3542 33.9571 78.9056 33.4058C79.4569 32.8545 80.1115 32.4171 80.8318 32.1187C81.5522 31.8203 82.3243 31.6667 83.104 31.6667C83.8837 31.6667 84.6558 31.8203 85.3762 32.1187C86.0966 32.4171 86.7511 32.8545 87.3025 33.4058C87.8538 33.9571 88.2912 34.6117 88.5895 35.3321C88.8879 36.0524 89.0415 36.8245 89.0415 37.6042Z" fill="white"/>
<path d="M25.708 85.1042C25.708 86.679 25.0824 88.1892 23.969 89.3027C22.8555 90.4162 21.3452 91.0417 19.7705 91.0417C18.1958 91.0417 16.6856 90.4162 15.5721 89.3027C14.4586 88.1892 13.833 86.679 13.833 85.1042C13.833 83.5295 14.4586 82.0193 15.5721 80.9058C16.6856 79.7923 18.1958 79.1667 19.7705 79.1667C21.3452 79.1667 22.8555 79.7923 23.969 80.9058C25.0824 82.0193 25.708 83.5295 25.708 85.1042Z" fill="white"/>
<path d="M41.5415 69.2708C41.5415 70.8455 40.9159 72.3557 39.8025 73.4692C38.689 74.5827 37.1787 75.2083 35.604 75.2083C34.0293 75.2083 32.5191 74.5827 31.4056 73.4692C30.2921 72.3557 29.6665 70.8455 29.6665 69.2708C29.6665 67.696 30.2921 66.1858 31.4056 65.0723C32.5191 63.9588 34.0293 63.3333 35.604 63.3333C37.1787 63.3333 38.689 63.9588 39.8025 65.0723C40.9159 66.1858 41.5415 67.696 41.5415 69.2708Z" fill="white"/>
<path d="M41.5415 85.1042C41.5415 86.679 40.9159 88.1892 39.8025 89.3027C38.689 90.4162 37.1787 91.0417 35.604 91.0417C34.0293 91.0417 32.5191 90.4162 31.4056 89.3027C30.2921 88.1892 29.6665 86.679 29.6665 85.1042C29.6665 83.5295 30.2921 82.0193 31.4056 80.9058C32.5191 79.7923 34.0293 79.1667 35.604 79.1667C37.1787 79.1667 38.689 79.7923 39.8025 80.9058C40.9159 82.0193 41.5415 83.5295 41.5415 85.1042Z" fill="white"/>
<path d="M57.375 69.2708C57.375 70.8455 56.7494 72.3557 55.6359 73.4692C54.5224 74.5827 53.0122 75.2083 51.4375 75.2083C49.8628 75.2083 48.3526 74.5827 47.2391 73.4692C46.1256 72.3557 45.5 70.8455 45.5 69.2708C45.5 67.696 46.1256 66.1858 47.2391 65.0723C48.3526 63.9588 49.8628 63.3333 51.4375 63.3333C53.0122 63.3333 54.5224 63.9588 55.6359 65.0723C56.7494 66.1858 57.375 67.696 57.375 69.2708Z" fill="white"/>
<path d="M57.375 85.1042C57.375 86.679 56.7494 88.1892 55.6359 89.3027C54.5224 90.4162 53.0122 91.0417 51.4375 91.0417C49.8628 91.0417 48.3526 90.4162 47.2391 89.3027C46.1256 88.1892 45.5 86.679 45.5 85.1042C45.5 83.5295 46.1256 82.0193 47.2391 80.9058C48.3526 79.7923 49.8628 79.1667 51.4375 79.1667C53.0122 79.1667 54.5224 79.7923 55.6359 80.9058C56.7494 82.0193 57.375 83.5295 57.375 85.1042Z" fill="white"/>
<path d="M73.208 85.1042C73.208 86.679 72.5825 88.1892 71.469 89.3027C70.3555 90.4162 68.8452 91.0417 67.2705 91.0417C65.6958 91.0417 64.1856 90.4162 63.0721 89.3027C61.9586 88.1892 61.333 86.679 61.333 85.1042C61.333 83.5295 61.9586 82.0193 63.0721 80.9058C64.1856 79.7923 65.6958 79.1667 67.2705 79.1667C68.8452 79.1667 70.3555 79.7923 71.469 80.9058C72.5825 82.0193 73.208 83.5295 73.208 85.1042Z" fill="white"/>
<path d="M73.208 69.2708C73.208 70.8455 72.5825 72.3557 71.469 73.4692C70.3555 74.5827 68.8452 75.2083 67.2705 75.2083C65.6958 75.2083 64.1856 74.5827 63.0721 73.4692C61.9586 72.3557 61.333 70.8455 61.333 69.2708C61.333 67.696 61.9586 66.1858 63.0721 65.0723C64.1856 63.9588 65.6958 63.3333 67.2705 63.3333C68.8452 63.3333 70.3555 63.9588 71.469 65.0723C72.5825 66.1858 73.208 67.696 73.208 69.2708Z" fill="white"/>
<path d="M89.0415 85.1042C89.0415 85.884 88.8879 86.6561 88.5895 87.3764C88.2912 88.0968 87.8538 88.7513 87.3025 89.3027C86.7511 89.854 86.0966 90.2914 85.3762 90.5898C84.6558 90.8882 83.8837 91.0417 83.104 91.0417C82.3243 91.0417 81.5522 90.8882 80.8318 90.5898C80.1115 90.2914 79.4569 89.854 78.9056 89.3027C78.3542 88.7513 77.9169 88.0968 77.6185 87.3764C77.3201 86.6561 77.1665 85.884 77.1665 85.1042C77.1665 84.3245 77.3201 83.5524 77.6185 82.8321C77.9169 82.1117 78.3542 81.4572 78.9056 80.9058C79.4569 80.3545 80.1115 79.9171 80.8318 79.6187C81.5522 79.3203 82.3243 79.1667 83.104 79.1667C83.8837 79.1667 84.6558 79.3203 85.3762 79.6187C86.0966 79.9171 86.7511 80.3545 87.3025 80.9058C87.8538 81.4572 88.2912 82.1117 88.5895 82.8321C88.8879 83.5524 89.0415 84.3245 89.0415 85.1042Z" fill="white"/>
<path d="M89.0415 69.2708C89.0415 70.0505 88.8879 70.8226 88.5895 71.5429C88.2912 72.2633 87.8538 72.9178 87.3025 73.4692C86.7511 74.0205 86.0966 74.4579 85.3762 74.7563C84.6558 75.0547 83.8837 75.2083 83.104 75.2083C82.3243 75.2083 81.5522 75.0547 80.8318 74.7563C80.1115 74.4579 79.4569 74.0205 78.9056 73.4692C78.3542 72.9178 77.9169 72.2633 77.6185 71.5429C77.3201 70.8226 77.1665 70.0505 77.1665 69.2708C77.1665 68.491 77.3201 67.7189 77.6185 66.9986C77.9169 66.2782 78.3542 65.6237 78.9056 65.0723C79.4569 64.521 80.1115 64.0836 80.8318 63.7852C81.5522 63.4868 82.3243 63.3333 83.104 63.3333C83.8837 63.3333 84.6558 63.4868 85.3762 63.7852C86.0966 64.0836 86.7511 64.521 87.3025 65.0723C87.8538 65.6237 88.2912 66.2782 88.5895 66.9986C88.8879 67.7189 89.0415 68.491 89.0415 69.2708Z" fill="white"/>
<path d="M9.875 21.7708C9.875 23.3455 9.24944 24.8557 8.13594 25.9692C7.02245 27.0827 5.51222 27.7083 3.9375 27.7083C2.36278 27.7083 0.852554 27.0827 -0.260943 25.9692C-1.37444 24.8557 -2 23.3455 -2 21.7708C-2 20.196 -1.37444 18.6858 -0.260943 17.5723C0.852554 16.4588 2.36278 15.8333 3.9375 15.8333C5.51222 15.8333 7.02245 16.4588 8.13594 17.5723C9.24944 18.6858 9.875 20.196 9.875 21.7708Z" fill="white"/>
<path d="M25.708 21.7708C25.708 23.3455 25.0824 24.8557 23.969 25.9692C22.8555 27.0827 21.3452 27.7083 19.7705 27.7083C18.1958 27.7083 16.6856 27.0827 15.5721 25.9692C14.4586 24.8557 13.833 23.3455 13.833 21.7708C13.833 20.196 14.4586 18.6858 15.5721 17.5723C16.6856 16.4588 18.1958 15.8333 19.7705 15.8333C21.3452 15.8333 22.8555 16.4588 23.969 17.5723C25.0824 18.6858 25.708 20.196 25.708 21.7708Z" fill="white"/>
<path d="M25.708 5.9375C25.708 7.51222 25.0824 9.02245 23.969 10.1359C22.8555 11.2494 21.3452 11.875 19.7705 11.875C18.1958 11.875 16.6856 11.2494 15.5721 10.1359C14.4586 9.02245 13.833 7.51222 13.833 5.9375C13.833 4.36278 14.4586 2.85255 15.5721 1.73905C16.6856 0.625556 18.1958 0 19.7705 0C21.3452 0 22.8555 0.625556 23.969 1.73905C25.0824 2.85255 25.708 4.36278 25.708 5.9375Z" fill="white"/>
<path d="M41.5415 21.7708C41.5415 23.3455 40.9159 24.8557 39.8025 25.9692C38.689 27.0827 37.1787 27.7083 35.604 27.7083C34.0293 27.7083 32.5191 27.0827 31.4056 25.9692C30.2921 24.8557 29.6665 23.3455 29.6665 21.7708C29.6665 20.196 30.2921 18.6858 31.4056 17.5723C32.5191 16.4588 34.0293 15.8333 35.604 15.8333C37.1787 15.8333 38.689 16.4588 39.8025 17.5723C40.9159 18.6858 41.5415 20.196 41.5415 21.7708Z" fill="white"/>
<path d="M89.0415 21.7708C89.0415 22.5505 88.8879 23.3226 88.5895 24.0429C88.2912 24.7633 87.8538 25.4179 87.3025 25.9692C86.7511 26.5205 86.0966 26.9579 85.3762 27.2563C84.6558 27.5547 83.8837 27.7083 83.104 27.7083C82.3243 27.7083 81.5522 27.5547 80.8318 27.2563C80.1115 26.9579 79.4569 26.5205 78.9056 25.9692C78.3542 25.4179 77.9169 24.7633 77.6185 24.0429C77.3201 23.3226 77.1665 22.5505 77.1665 21.7708C77.1665 20.991 77.3201 20.2189 77.6185 19.4986C77.9169 18.7782 78.3542 18.1237 78.9056 17.5723C79.4569 17.021 80.1115 16.5836 80.8318 16.2852C81.5522 15.9868 82.3243 15.8333 83.104 15.8333C83.8837 15.8333 84.6558 15.9868 85.3762 16.2852C86.0966 16.5836 86.7511 17.021 87.3025 17.5723C87.8538 18.1237 88.2912 18.7782 88.5895 19.4986C88.8879 20.2189 89.0415 20.991 89.0415 21.7708Z" fill="white"/>
</svg>
