<svg width="197" height="165" viewBox="0 0 197 165" fill="none" xmlns="http://www.w3.org/2000/svg">
<path d="M93.6921 124.074V128.758L36.896 161.491V156.808C36.896 153.558 37.6638 150.124 39.1997 146.541C40.7524 142.941 42.8728 139.674 45.594 136.758C48.6659 133.491 51.8378 130.508 55.0933 127.824C58.3488 125.141 61.7547 122.774 65.294 120.724C68.8501 118.674 72.2557 117.124 75.4945 116.058C78.75 114.991 81.9223 114.324 84.9942 114.041C86.4968 113.924 87.8153 114.124 88.9673 114.624L89.4013 114.841C90.1526 115.241 90.8204 115.774 91.388 116.458C92.924 118.291 93.6921 120.824 93.6921 124.074Z" stroke="white"/>
<path d="M79.5016 88.1411C79.5016 88.4911 79.4849 88.8411 79.4682 89.1911C79.4682 89.3578 79.4515 89.5411 79.4348 89.7078C79.4348 89.9411 79.4012 90.1578 79.3678 90.3911C79.3845 90.4578 79.3678 90.5245 79.3511 90.5911C78.9505 94.2911 77.5983 98.1078 75.3278 102.024C74.4096 103.608 73.4246 105.041 72.3895 106.341C70.286 109.008 67.9153 111.074 65.2942 112.591C62.022 114.474 59.1339 115.024 56.6631 114.191C56.1789 114.041 55.728 113.841 55.2772 113.591C52.4892 112.008 51.1035 108.974 51.1035 104.508C51.1035 102.174 51.4873 99.7745 52.2553 97.3411C52.9398 95.1411 53.9583 92.8911 55.2772 90.6078C57.5811 86.6245 60.2856 83.5078 63.3908 81.3078C63.4242 81.2578 63.4576 81.2411 63.5077 81.2245C64.092 80.7911 64.6765 80.4078 65.2942 80.0578C67.5814 78.7411 69.6683 78.0745 71.5715 78.0745C72.5899 78.0745 73.5415 78.2578 74.443 78.6245L75.3278 79.0578C77.0307 80.0245 78.2159 81.5411 78.867 83.6078C79.2844 84.9078 79.5016 86.4078 79.5016 88.1411Z" stroke="white"/>
<path d="M107.899 79.9079C107.899 81.5079 107.766 83.1579 107.532 84.8746C107.315 86.3413 107.014 87.8413 106.631 89.3913C106.58 89.5746 106.53 89.7746 106.48 89.9746C105.528 93.5746 104.109 97.2746 102.206 101.075L94.7603 96.8246C95.7119 94.7913 96.3633 92.8913 96.7139 91.1246C97.0645 89.3579 97.2478 87.6746 97.2478 86.0413C97.2478 84.4079 97.0645 82.9246 96.7139 81.5746C96.3633 80.2246 95.7119 79.1413 94.7603 78.3246L102.206 65.2913C103.909 66.6246 105.228 68.3746 106.163 70.5746C106.28 70.8413 106.38 71.1079 106.48 71.3746C107.415 73.9413 107.899 76.7913 107.899 79.9079Z" stroke="white"/>
<path d="M193.077 66.7915V71.4582L136.297 104.208V99.5248C136.297 96.2748 137.065 92.8415 138.601 89.2415C140.137 85.6581 142.257 82.3915 144.979 79.4748C148.067 76.2081 151.222 73.2248 154.478 70.5415C157.733 67.8415 161.139 65.4748 164.679 63.4415C168.235 61.3915 171.64 59.8415 174.896 58.7748C178.151 57.7082 181.307 57.0415 184.379 56.7582C185.898 56.6415 187.217 56.8248 188.369 57.3415L188.803 57.5583C189.537 57.9583 190.205 58.4917 190.773 59.175C192.309 60.9917 193.077 63.5415 193.077 66.7915Z" stroke="white"/>
<path d="M178.886 30.8582C178.886 35.3248 177.5 39.9582 174.712 44.7415C173.794 46.3248 172.826 47.7582 171.774 49.0582C169.671 51.7248 167.3 53.7915 164.679 55.3082C161.407 57.2082 158.519 57.7415 156.031 56.9082C155.564 56.7582 155.113 56.5582 154.662 56.3082C151.874 54.7248 150.488 51.6915 150.488 47.2248C150.488 44.8748 150.872 42.4915 151.64 40.0582C152.325 37.8582 153.343 35.6082 154.662 33.3248C157.433 28.5415 160.789 25.0248 164.679 22.7748C168.185 20.7582 171.24 20.2748 173.828 21.3415L174.712 21.7748C177.5 23.3582 178.886 26.3748 178.886 30.8582Z" stroke="white"/>
<path d="M141.323 5.10767C140.972 4.90767 140.605 4.741 140.237 4.60767L141.623 5.291C141.523 5.22433 141.423 5.17433 141.323 5.10767Z" stroke="white"/>
<path d="M117.299 109.858L83.9088 93.1916L79.3511 90.5916C79.3511 90.5916 79.3845 90.4583 79.3678 90.3916L84.1427 92.7583L109.669 105.508L117.299 109.858Z" stroke="white"/>
<path d="M129.186 67.6243C129.186 69.2243 129.119 70.8409 129.002 72.4909C128.635 77.4243 127.733 82.6076 126.264 88.0243C125.396 91.2076 124.344 94.4076 123.059 97.6076C121.473 101.674 119.552 105.758 117.299 109.858L109.669 105.508C111.823 101.508 113.576 97.5243 114.945 93.541C115.462 92.0576 115.93 90.5576 116.331 89.0743C117.299 85.441 117.95 81.9743 118.267 78.6743C118.451 76.9909 118.534 75.3576 118.534 73.7743C118.534 69.0243 117.8 64.8076 116.331 61.1243C116.03 60.391 115.713 59.691 115.346 59.0243C113.943 56.3076 112.04 54.1243 109.669 52.4576L117.299 39.3076C121.155 41.9076 124.077 45.5076 126.013 50.1243C126.114 50.3243 126.181 50.5076 126.264 50.7076C128.217 55.6243 129.186 61.2576 129.186 67.6243Z" stroke="white"/>
<path d="M188.369 57.3408C187.217 56.8241 185.898 56.6408 184.379 56.7575C181.307 57.0408 178.151 57.7075 174.896 58.7741C171.64 59.8408 168.235 61.3908 164.679 63.4408C161.14 65.4741 157.734 67.8408 154.478 70.5408C151.223 73.2241 148.067 76.2075 144.979 79.4741C142.258 82.3908 140.137 85.6575 138.601 89.2408C137.065 92.8408 136.297 96.2741 136.297 99.5241V104.207L123.059 97.6075C124.344 94.4075 125.396 91.2075 126.264 88.0241C127.733 82.6075 128.634 77.4241 129.002 72.4908C129.119 70.8408 129.185 69.2241 129.185 67.6241C129.185 61.2575 128.217 55.6241 126.264 50.7075C126.18 50.5075 126.113 50.3241 126.013 50.1241C127.733 48.9241 129.503 47.8075 131.289 46.7741C131.974 46.3741 132.641 46.0075 133.309 45.6575L154.662 56.3075C155.113 56.5575 155.564 56.7575 156.031 56.9075C158.519 57.7408 161.407 57.2075 164.679 55.3075C167.3 53.7908 169.67 51.7241 171.774 49.0575L188.369 57.3408Z" stroke="white"/>
<path d="M173.827 21.3413C171.24 20.2746 168.184 20.7579 164.679 22.7746C160.789 25.0246 157.433 28.5412 154.662 33.3246C153.343 35.6079 152.324 37.8579 151.64 40.0579C150.872 42.4913 150.488 44.8746 150.488 47.2246C150.488 51.6912 151.874 54.7246 154.662 56.3079L133.309 45.6579L122.157 40.0746L121.272 39.6413C118.484 38.0579 117.098 35.0246 117.098 30.5579C117.098 26.0912 118.484 21.4579 121.272 16.658C124.043 11.8746 127.399 8.35797 131.289 6.10797C134.695 4.1413 137.7 3.6413 140.237 4.60797L141.623 5.29132L173.827 21.3413Z" stroke="white"/>
<path d="M140.237 4.60767L140.104 4.54102" stroke="white"/>
<path d="M117.298 39.3083L109.669 52.4583L95.5118 45.3916L76.2793 35.7916L83.9085 22.6416L117.298 39.3083Z" stroke="white"/>
<path d="M102.206 65.2914L94.7604 78.3248L91.2882 76.5914L74.1592 68.0414L61.3706 61.6581L68.8165 48.6248L85.1442 56.7748L94.9276 61.6581L102.206 65.2914Z" stroke="white"/>
<path d="M118.534 73.7743C118.534 75.3577 118.45 76.991 118.267 78.6744C117.95 81.9744 117.299 85.441 116.33 89.0743C115.93 90.5577 115.462 92.0577 114.945 93.541C113.576 97.5243 111.823 101.508 109.669 105.508L84.1424 92.7577L79.3675 90.391C79.4009 90.1577 79.4345 89.941 79.4345 89.7077L84.4262 92.2077L102.206 101.074C104.109 97.2743 105.528 93.5744 106.48 89.9743C106.53 89.7743 106.58 89.5744 106.63 89.391C107.014 87.841 107.315 86.341 107.532 84.8743C107.766 83.1577 107.899 81.5077 107.899 79.9077C107.899 76.791 107.415 73.941 106.48 71.3743C106.38 71.1077 106.28 70.841 106.163 70.5743C105.228 68.3743 103.909 66.6243 102.206 65.291L94.9273 61.6577L85.144 56.7744C85.1106 52.1577 84.3763 48.0577 82.9406 44.4577C81.4547 40.7577 79.2343 37.8743 76.2793 35.791L95.5118 45.391L109.669 52.4577C112.04 54.1243 113.943 56.3077 115.345 59.0243C115.713 59.691 116.03 60.391 116.33 61.1243C117.8 64.8077 118.534 69.0243 118.534 73.7743Z" stroke="white"/>
<path d="M102.206 101.074L84.4263 92.2076L79.4346 89.7076C79.4513 89.5409 79.468 89.3576 79.468 89.1909L84.6602 91.7744L94.7603 96.8244L102.206 101.074Z" stroke="white"/>
<path d="M97.248 86.0411C97.248 87.6744 97.0647 89.3577 96.7141 91.1244C96.3635 92.8911 95.712 94.7911 94.7604 96.8244L84.6604 91.7744L79.4681 89.1911C79.4848 88.8411 79.5015 88.4911 79.5015 88.1411C79.5015 86.4077 79.2843 84.9077 78.8669 83.6077C78.2158 81.5411 77.0306 80.0244 75.3277 79.0577L74.4429 78.6244L71.855 77.3244L63.5578 73.1744C63.7581 71.8744 63.8582 70.6077 63.8582 69.3744C63.8582 67.7411 63.6748 66.2577 63.3242 64.9077C62.9737 63.5577 62.3222 62.4744 61.3706 61.6577L74.1592 68.0411L91.2882 76.5911L94.7604 78.3244C95.712 79.141 96.3635 80.2244 96.7141 81.5744C97.0647 82.9244 97.248 84.4077 97.248 86.0411Z" stroke="white"/>
<path d="M74.4427 78.6247C73.5412 78.258 72.5896 78.0747 71.5712 78.0747C69.668 78.0747 67.5811 78.7414 65.2939 80.058C64.6762 80.408 64.0917 80.7914 63.5074 81.2247C63.4573 81.2247 63.4239 81.258 63.3905 81.308C60.2852 83.508 57.5808 86.6247 55.2769 90.608C53.958 92.8914 52.9395 95.1414 52.255 97.3414C51.487 99.7747 51.1032 102.175 51.1032 104.508C51.1032 108.975 52.4889 112.008 55.2769 113.591L33.9241 102.941L22.7719 97.358L21.8871 96.9247C19.0991 95.3414 17.7134 92.308 17.7134 87.8414C17.7134 83.3747 19.0991 78.7414 21.8871 73.9414C24.6585 69.158 27.9974 65.6414 31.9041 63.3914C35.8107 61.1414 39.1497 60.808 41.9377 62.3914L63.5576 73.1747L71.8548 77.3247L74.4427 78.6247Z" stroke="white"/>
<path d="M88.967 114.624C87.815 114.124 86.4964 113.924 84.9939 114.041C81.922 114.324 78.7497 114.991 75.4942 116.058C72.2554 117.124 68.8498 118.674 65.2937 120.724C61.7544 122.774 58.3485 125.141 55.093 127.824C51.8375 130.508 48.6656 133.491 45.5937 136.758C42.8725 139.674 40.752 142.941 39.1994 146.541C37.6635 150.124 36.8957 153.558 36.8957 156.808V161.491L3.50586 144.824V140.141C3.50586 136.891 4.27363 133.458 5.80956 129.874C7.36218 126.274 9.48257 123.008 12.2038 120.091C15.2757 116.824 18.4476 113.841 21.7032 111.158C24.9587 108.474 28.3646 106.108 31.9039 104.058C32.5884 103.658 33.2562 103.291 33.924 102.941L55.2768 113.591C55.7276 113.841 56.1785 114.041 56.6626 114.191C59.1335 115.024 62.0215 114.474 65.2937 112.591C67.9148 111.074 70.2855 109.008 72.3891 106.341L88.967 114.624Z" stroke="white"/>
</svg>
