<svg width="110" height="840" viewBox="0 0 110 840" fill="none" xmlns="http://www.w3.org/2000/svg">
<rect x="110" width="16.2089" height="110" transform="rotate(90 110 0)" fill="white"/>
<rect x="110" y="122.043" width="16.2089" height="110" transform="rotate(90 110 122.043)" fill="white"/>
<rect x="110" y="244.086" width="16.2089" height="110" transform="rotate(90 110 244.086)" fill="white"/>
<rect x="110" y="366.129" width="16.2089" height="110" transform="rotate(90 110 366.129)" fill="white"/>
<rect x="110" y="488.172" width="16.2089" height="110" transform="rotate(90 110 488.172)" fill="white"/>
<rect x="110" y="610.216" width="16.2089" height="110" transform="rotate(90 110 610.216)" fill="white"/>
<rect x="110" y="732.259" width="16.2089" height="110" transform="rotate(90 110 732.259)" fill="white"/>
<rect x="110" y="61.0215" width="16.2089" height="110" transform="rotate(90 110 61.0215)" fill="white"/>
<rect x="110" y="183.064" width="16.2089" height="110" transform="rotate(90 110 183.064)" fill="white"/>
<rect x="110" y="305.108" width="16.2089" height="110" transform="rotate(90 110 305.108)" fill="white"/>
<rect x="110" y="427.151" width="16.2089" height="110" transform="rotate(90 110 427.151)" fill="white"/>
<rect x="110" y="549.194" width="16.2089" height="110" transform="rotate(90 110 549.194)" fill="white"/>
<rect x="110" y="671.237" width="16.2089" height="110" transform="rotate(90 110 671.237)" fill="white"/>
<rect x="110" y="793.28" width="16.2089" height="110" transform="rotate(90 110 793.28)" fill="white"/>
<rect x="110" y="30.5107" width="16.2089" height="110" transform="rotate(90 110 30.5107)" fill="white"/>
<rect x="110" y="152.554" width="16.2089" height="110" transform="rotate(90 110 152.554)" fill="white"/>
<rect x="110" y="274.597" width="16.2089" height="110" transform="rotate(90 110 274.597)" fill="white"/>
<rect x="110" y="396.64" width="16.2089" height="110" transform="rotate(90 110 396.64)" fill="white"/>
<rect x="110" y="518.683" width="16.2089" height="110" transform="rotate(90 110 518.683)" fill="white"/>
<rect x="110" y="640.727" width="16.2089" height="110" transform="rotate(90 110 640.727)" fill="white"/>
<rect x="110" y="762.77" width="16.2089" height="110" transform="rotate(90 110 762.77)" fill="white"/>
<rect x="110" y="91.5322" width="16.2089" height="110" transform="rotate(90 110 91.5322)" fill="white"/>
<rect x="110" y="213.576" width="16.2089" height="110" transform="rotate(90 110 213.576)" fill="white"/>
<rect x="110" y="335.619" width="16.2089" height="110" transform="rotate(90 110 335.619)" fill="white"/>
<rect x="110" y="457.662" width="16.2089" height="110" transform="rotate(90 110 457.662)" fill="white"/>
<rect x="110" y="579.705" width="16.2089" height="110" transform="rotate(90 110 579.705)" fill="white"/>
<rect x="110" y="701.748" width="16.2089" height="110" transform="rotate(90 110 701.748)" fill="white"/>
<rect x="110" y="823.791" width="16.2089" height="110" transform="rotate(90 110 823.791)" fill="white"/>
</svg>
