<svg width="48" height="48" viewBox="0 0 48 48" fill="none" xmlns="http://www.w3.org/2000/svg">
<g clip-path="url(#clip0_607_563)">
<path d="M0 44.3078V3.6923C0 2.71305 0.389009 1.77389 1.08145 1.08145C1.77389 0.389009 2.71305 0 3.6923 0H44.3078C45.287 0 46.2261 0.389009 46.9186 1.08145C47.6109 1.77389 48 2.71305 48 3.6923V44.3078C48 45.287 47.6109 46.2261 46.9186 46.9186C46.2261 47.6109 45.287 48 44.3078 48H33.2308V30.4985H35.8522C36.4498 30.4985 37.0224 30.2612 37.4448 29.8388C37.8672 29.4164 38.1045 28.8435 38.1045 28.2461V25.4031C38.1045 25.1073 38.0465 24.8144 37.933 24.5412C37.8199 24.2679 37.6539 24.0196 37.4448 23.8105C37.2357 23.6013 36.9874 23.4354 36.7142 23.3222C36.4409 23.209 36.1481 23.1508 35.8522 23.1508H33.3785V19.68C33.3785 16.5784 34.7815 16.5784 36.1845 16.5784H37.9937C38.291 16.5907 38.5872 16.5375 38.8615 16.4227C39.1358 16.3078 39.3816 16.1341 39.5815 15.9139C39.7961 15.7096 39.9658 15.463 40.0803 15.1897C40.1949 14.9164 40.2511 14.6224 40.2463 14.3261V11.5939C40.2559 11.2932 40.2065 10.9935 40.1006 10.712C39.9943 10.4305 39.8338 10.1726 39.6281 9.95314C39.4224 9.73368 39.1755 9.55694 38.9013 9.43296C38.6273 9.30902 38.3314 9.24031 38.0307 9.23078H33.7846C32.5456 9.18418 31.3114 9.40711 30.1669 9.88416C29.0225 10.3612 27.9953 11.0809 27.1563 11.9937C26.3172 12.9065 25.6863 13.9906 25.3071 15.171C24.9279 16.3514 24.8095 17.6001 24.96 18.8308V23.1508H22.5969C22.2981 23.1459 22.0012 23.2005 21.7237 23.3115C21.4461 23.4225 21.1934 23.5876 20.9804 23.7973C20.7673 24.0069 20.5981 24.2568 20.4826 24.5325C20.3671 24.8083 20.3077 25.1042 20.3077 25.4031V28.2461C20.3077 28.5451 20.3671 28.841 20.4826 29.1167C20.5981 29.3924 20.7673 29.6423 20.9804 29.852C21.1934 30.0616 21.4461 30.2267 21.7237 30.3377C22.0012 30.4487 22.2981 30.5033 22.5969 30.4985H24.96V48H3.6923C2.71305 48 1.77389 47.6109 1.08145 46.9186C0.389009 46.2261 0 45.287 0 44.3078Z" fill="black"/>
</g>
<defs>
<clipPath id="clip0_607_563">
<rect width="48" height="48" fill="white"/>
</clipPath>
</defs>
</svg>
