<svg width="237" height="351" viewBox="0 0 237 351" fill="none" xmlns="http://www.w3.org/2000/svg">
<path d="M230.339 50.5615V62.944C230.339 68.079 228.78 73.3765 225.631 78.804C222.515 84.2315 218.651 88.2615 214.171 90.829C209.691 93.429 205.86 93.819 202.743 92.0315C199.562 90.244 198.003 86.7665 198.003 81.6315V69.249C198.003 64.0815 199.562 58.784 202.743 53.3565C205.86 47.929 209.691 43.9315 214.171 41.3315C218.197 38.959 221.736 38.4065 224.658 39.609L225.631 40.0965C228.78 41.9165 230.339 45.394 230.339 50.5615Z" stroke="black"/>
<path d="M219.562 137.563C219.562 147.053 217.387 157.03 212.972 167.528C208.557 178.025 202.583 187.515 195.051 195.998C189.304 202.4 184.759 209.615 181.447 217.643C178.136 225.638 176.448 233.243 176.448 240.458V261.225C176.448 275.038 172.292 289.143 163.948 303.573C155.572 318.003 145.378 328.695 133.333 335.65C121.483 342.475 111.354 343.515 102.913 338.705C94.4719 333.863 90.251 324.633 90.251 311.048V236.753C90.251 216.115 96.5493 194.958 109.114 173.248C120.704 153.195 134.664 137.953 150.832 127.585C152.163 126.708 153.527 125.863 154.891 125.083L174.597 113.74C186.999 106.558 197.55 105.225 206.381 109.743C215.179 114.26 219.562 123.523 219.562 137.563Z" stroke="black"/>
<path d="M122.555 125.213V131.388C122.555 134.898 121.549 138.441 119.471 142.016C117.426 145.591 114.861 148.256 111.777 150.011C108.757 151.766 106.193 152.091 104.115 150.888C102.069 149.718 101.03 147.378 101.03 143.868V137.693C101.03 134.151 102.069 130.641 104.115 127.066C106.193 123.491 108.757 120.826 111.777 119.071C114.504 117.478 116.841 117.088 118.757 117.836L119.471 118.193C121.549 119.363 122.555 121.703 122.555 125.213Z" stroke="black"/>
<path d="M206.381 109.744C197.55 105.226 186.999 106.559 174.597 113.741L154.89 125.084C153.527 125.864 152.163 126.709 150.832 127.586C134.664 137.954 120.704 153.196 109.113 173.249C96.5491 194.959 90.2507 216.116 90.2507 236.754V311.049C90.2507 324.634 94.4716 333.863 102.913 338.705L39.7665 307.084L37.9812 306.206C29.5399 301.364 25.3193 292.134 25.3193 278.549V204.254C25.3193 192.456 27.3647 180.496 31.4879 168.374L77.167 191.221C79.2449 192.391 81.8096 192.131 84.8614 190.344C87.8807 188.589 90.4455 185.924 92.5233 182.349C94.6012 178.806 95.6404 175.264 95.6404 171.754C95.6404 168.244 94.6012 165.871 92.5233 164.701L44.2792 140.554C47.331 135.289 50.5451 130.381 53.9216 125.766L104.114 150.889C106.191 152.091 108.756 151.766 111.776 150.011C114.86 148.256 117.425 145.591 119.47 142.016C121.548 138.441 122.554 134.899 122.554 131.389V125.214C122.554 121.704 121.548 119.364 119.47 118.194L80.576 98.7262C82.459 97.3287 84.4072 96.0287 86.3552 94.7612L136.45 119.851C138.527 121.021 141.092 120.696 144.111 118.941C147.196 117.186 149.76 114.521 151.806 110.946C153.234 108.476 154.176 106.006 154.598 103.569C154.793 102.464 154.89 101.391 154.89 100.319V94.2087L168.785 101.164C170.863 102.334 173.428 102.009 176.448 100.254C178.006 99.3762 179.402 98.2387 180.7 96.9062L206.381 109.744Z" stroke="black"/>
<path d="M95.6421 171.753C95.6421 175.263 94.6028 178.805 92.525 182.348C90.4472 185.923 87.8824 188.588 84.8631 190.343C81.8113 192.13 79.2465 192.39 77.1687 191.22C75.0909 190.05 74.0845 187.71 74.0845 184.2C74.0845 180.69 75.0909 177.148 77.1687 173.573C79.2465 170.03 81.8113 167.365 84.8631 165.578C87.8824 163.823 90.4472 163.53 92.525 164.7C94.6028 165.87 95.6421 168.21 95.6421 171.753Z" stroke="black"/>
<path d="M92.5252 164.7C90.4474 163.53 87.8826 163.823 84.8633 165.578C81.8115 167.365 79.2468 170.03 77.1689 173.573C75.0911 177.148 74.0847 180.69 74.0847 184.2C74.0847 187.71 75.0911 190.05 77.1689 191.22L31.4898 168.373L12.8869 159.045L12.2374 158.72C10.1596 157.55 9.15332 155.21 9.15332 151.7C9.15332 148.19 10.1596 144.648 12.2374 141.073C14.3152 137.53 16.88 134.865 19.9318 133.078C22.9511 131.323 25.5158 131.03 27.5936 132.2L92.5252 164.7Z" stroke="black"/>
<path d="M118.757 117.838C116.842 117.09 114.504 117.48 111.777 119.073C108.758 120.828 106.193 123.493 104.115 127.068C102.07 130.643 101.031 134.153 101.031 137.695V143.87C101.031 147.38 102.07 149.72 104.115 150.89L53.9228 125.768L39.833 118.715L39.1837 118.39C37.1383 117.22 36.0991 114.88 36.0991 111.37V105.195C36.0991 101.653 37.1383 98.1426 39.1837 94.5676C41.2615 90.9926 43.8263 88.3276 46.8456 86.5726C49.9299 84.7851 52.4947 84.4926 54.54 85.6951L118.757 117.838Z" stroke="black"/>
<path d="M150.898 86.7009C149.015 86.0509 146.743 86.4734 144.113 88.0009C143.853 88.1309 143.626 88.2934 143.399 88.4559C140.672 90.1784 138.367 92.7134 136.451 95.9959C134.406 99.5709 133.334 103.081 133.334 106.623V112.798C133.334 116.308 134.406 118.648 136.451 119.851L86.3567 94.7609L72.1367 87.6434L71.5195 87.3509C69.4742 86.1484 68.4028 83.8084 68.4028 80.2984V74.1234C68.4028 70.5809 69.4742 67.0709 71.5195 63.4959C73.5974 59.9209 76.1621 57.2559 79.1815 55.5009C82.2657 53.7134 84.8305 53.4209 86.8758 54.6234L100.739 61.5784L112.232 67.2984L127.198 74.8059L150.834 86.6359V86.7009H150.898Z" stroke="black"/>
<path d="M187.228 69.2477V81.6302C187.228 82.4752 187.163 83.3202 187.033 84.1652C186.676 86.8627 185.735 89.5277 184.144 92.2577C183.105 94.0452 181.968 95.5727 180.702 96.9052C179.403 98.2377 178.008 99.3752 176.449 100.253C173.43 102.008 170.865 102.333 168.787 101.163C166.709 99.9602 165.67 97.6202 165.67 94.1102V81.7277C165.67 79.2577 166.19 76.7552 167.229 74.2527C167.651 73.2127 168.17 72.1727 168.787 71.1327C170.865 67.5252 173.43 64.8602 176.449 63.1377C179.241 61.5127 181.546 61.1227 183.527 61.9352L184.144 62.2277C186.222 63.4302 187.228 65.7702 187.228 69.2477Z" stroke="black"/>
<path d="M154.892 94.1443V100.319C154.892 101.392 154.794 102.464 154.6 103.537C154.177 106.007 153.236 108.477 151.807 110.947C149.762 114.522 147.197 117.187 144.113 118.942C141.094 120.697 138.529 121.022 136.451 119.852C134.406 118.649 133.334 116.309 133.334 112.799V106.624C133.334 103.082 134.406 99.5718 136.451 95.9968C138.367 92.7143 140.672 90.1793 143.399 88.4568C143.626 88.2943 143.853 88.1318 144.113 88.0018C146.743 86.4743 149.015 86.0518 150.898 86.7018L151.093 86.7668L151.807 87.1243C153.885 88.2943 154.892 90.6343 154.892 94.1443Z" stroke="black"/>
<path d="M183.525 61.9353C181.545 61.1228 179.24 61.5128 176.448 63.1378C173.428 64.8603 170.863 67.5253 168.786 71.1328C168.169 72.1728 167.649 73.2128 167.227 74.2528C166.188 76.7553 165.669 79.2578 165.669 81.7278V94.1103C165.669 97.6203 166.708 99.9603 168.786 101.163L154.891 94.2078V94.1428C154.891 90.6328 153.884 88.2928 151.806 87.1228L151.092 86.7653L150.897 86.7003V86.6353L127.262 74.8053L112.295 67.2978L100.802 61.5778V49.2278C100.802 45.7178 101.841 42.1753 103.919 38.6328C105.997 35.0253 108.562 32.3603 111.581 30.6378C114.665 28.8503 117.197 28.5578 119.275 29.7278L133.138 36.6828L183.59 61.9353H183.525Z" stroke="black"/>
<path d="M224.661 39.6084C221.739 38.4059 218.2 38.9584 214.174 41.3309C209.694 43.9309 205.863 47.9284 202.746 53.3559C199.565 58.7834 198.006 64.0812 198.006 69.2487V81.6309C198.006 86.7659 199.565 90.2434 202.746 92.0309L187.033 84.1662C187.163 83.3212 187.228 82.4759 187.228 81.6309V69.2487C187.228 65.7712 186.221 63.4309 184.144 62.2284L183.526 61.9362L133.075 36.6834C133.075 31.5486 134.633 26.2511 137.815 20.8561C140.931 15.4286 144.763 11.4311 149.243 8.83106C153.723 6.19856 157.586 5.80856 160.703 7.59606L224.661 39.6084Z" stroke="black"/>
</svg>
