<svg width="79" height="116" viewBox="0 0 79 116" fill="none" xmlns="http://www.w3.org/2000/svg">
<path d="M76.7797 16.7097V20.8019C76.7797 22.499 76.2602 24.2497 75.2104 26.0434C74.1715 27.8371 72.8838 29.169 71.3904 30.0175C69.897 30.8768 68.62 31.0056 67.5811 30.4149C66.5205 29.8242 66.001 28.6749 66.001 26.9779V22.8856C66.001 21.1779 66.5205 19.4271 67.5811 17.6334C68.62 15.8397 69.897 14.5186 71.3904 13.6593C72.7323 12.8753 73.9119 12.6927 74.8859 13.0901L75.2104 13.2512C76.2602 13.8527 76.7797 15.0019 76.7797 16.7097Z" stroke="black"/>
<path d="M73.1877 45.4623C73.1877 48.5986 72.4627 51.896 70.9909 55.3653C69.5192 58.8345 67.5279 61.9708 65.0172 64.7742C63.1018 66.8901 61.5866 69.2745 60.4828 71.9275C59.3789 74.5697 58.8163 77.0831 58.8163 79.4675V86.3308C58.8163 90.8956 57.431 95.5571 54.6497 100.326C51.8577 105.095 48.4596 108.629 44.4447 110.927C40.4947 113.183 37.1183 113.526 34.3046 111.937C31.4909 110.336 30.084 107.286 30.084 102.796V78.2431C30.084 71.4227 32.1834 64.4305 36.3715 57.2556C40.2349 50.6286 44.8885 45.5912 50.2778 42.1649C50.7215 41.8749 51.176 41.5956 51.6305 41.3379L58.1993 37.5894C62.3333 35.2156 65.8504 34.7753 68.794 36.2682C71.7267 37.7612 73.1877 40.8223 73.1877 45.4623Z" stroke="black"/>
<path d="M40.8517 41.3812V43.4219C40.8517 44.5819 40.5163 45.7527 39.8237 46.9341C39.1419 48.1156 38.287 48.9964 37.2589 49.5764C36.2525 50.1564 35.3975 50.2638 34.7049 49.8664C34.0232 49.4797 33.6768 48.7064 33.6768 47.5464V45.5056C33.6768 44.3349 34.0232 43.1749 34.7049 41.9934C35.3975 40.8119 36.2525 39.9312 37.2589 39.3512C38.168 38.8249 38.9471 38.696 39.5856 38.943L39.8237 39.0612C40.5163 39.4478 40.8517 40.2212 40.8517 41.3812Z" stroke="black"/>
<path d="M68.7933 36.2686C65.8497 34.7756 62.3326 35.216 58.1986 37.5897L51.6298 41.3382C51.1753 41.596 50.7208 41.8753 50.2771 42.1653C44.8878 45.5916 40.2342 50.629 36.3708 57.256C32.1827 64.4308 30.0833 71.423 30.0833 78.2434V102.797C30.0833 107.286 31.4902 110.336 34.3039 111.937L13.2552 101.486L12.6601 101.196C9.84632 99.596 8.43945 96.5456 8.43945 92.056V67.5027C8.43945 63.6038 9.12126 59.6512 10.4956 55.6449L25.722 63.1956C26.4146 63.5823 27.2696 63.4964 28.2868 62.9056C29.2933 62.3256 30.1482 61.4449 30.8408 60.2634C31.5334 59.0927 31.8798 57.9219 31.8798 56.7619C31.8798 55.6019 31.5334 54.8179 30.8408 54.4312L14.7594 46.4508C15.7767 44.7108 16.8481 43.089 17.9735 41.5638L34.7042 49.8664C35.3968 50.2638 36.2517 50.1564 37.2582 49.5764C38.2863 48.9964 39.1412 48.1156 39.823 46.9341C40.5156 45.7527 40.8511 44.5819 40.8511 43.4219V41.3812C40.8511 40.2212 40.5156 39.4479 39.823 39.0612L26.8583 32.6275C27.486 32.1656 28.1354 31.736 28.7847 31.3171L45.4828 39.609C46.1755 39.9956 47.0304 39.8882 48.0368 39.3082C49.0649 38.7282 49.9198 37.8475 50.6016 36.666C51.0778 35.8497 51.3916 35.0334 51.5323 34.2279C51.5972 33.8627 51.6298 33.5082 51.6298 33.1538V31.1345L56.2615 33.433C56.9541 33.8197 57.8091 33.7123 58.8156 33.1323C59.335 32.8423 59.8002 32.4664 60.2331 32.026L68.7933 36.2686Z" stroke="black"/>
<path d="M31.8812 56.7615C31.8812 57.9215 31.5348 59.0922 30.8422 60.263C30.1496 61.4444 29.2946 62.3252 28.2882 62.9052C27.2709 63.4959 26.416 63.5818 25.7234 63.1952C25.0308 62.8085 24.6953 62.0352 24.6953 60.8752C24.6953 59.7152 25.0308 58.5444 25.7234 57.363C26.416 56.1922 27.2709 55.3115 28.2882 54.7207C29.2946 54.1407 30.1496 54.0441 30.8422 54.4307C31.5348 54.8174 31.8812 55.5907 31.8812 56.7615Z" stroke="black"/>
<path d="M30.8414 54.4307C30.1488 54.0441 29.2939 54.1407 28.2875 54.7207C27.2702 55.3115 26.4153 56.1922 25.7227 57.363C25.0301 58.5445 24.6946 59.7152 24.6946 60.8752C24.6946 62.0352 25.0301 62.8085 25.7227 63.1952L10.4963 55.6445L4.29532 52.5619L4.07881 52.4545C3.38621 52.0678 3.05078 51.2945 3.05078 50.1345C3.05078 48.9745 3.38621 47.8037 4.07881 46.6222C4.77141 45.4515 5.62633 44.5707 6.64359 43.98C7.65003 43.4 8.50495 43.3033 9.19756 43.69L30.8414 54.4307Z" stroke="black"/>
<path d="M39.5859 38.9434C38.9474 38.6964 38.1682 38.8252 37.2592 39.3515C36.2528 39.9315 35.3978 40.8123 34.7052 41.9938C34.0234 43.1752 33.677 44.3352 33.677 45.506V47.5467C33.677 48.7067 34.0234 49.4801 34.7052 49.8667L17.9744 41.5641L13.2778 39.2334L13.0614 39.126C12.3796 38.7393 12.0332 37.966 12.0332 36.806V34.7652C12.0332 33.5945 12.3796 32.4345 13.0614 31.253C13.754 30.0715 14.6089 29.1908 15.6154 28.6108C16.6434 28.0201 17.4984 27.9234 18.1802 28.3208L39.5859 38.9434Z" stroke="black"/>
<path d="M50.2992 28.6534C49.6715 28.4385 48.9141 28.5782 48.0375 29.083C47.9509 29.1259 47.8752 29.1796 47.7994 29.2334C46.8904 29.8026 46.122 30.6404 45.4835 31.7252C44.8017 32.9067 44.4446 34.0667 44.4446 35.2374V37.2782C44.4446 38.4382 44.8017 39.2115 45.4835 39.6089L28.7854 31.3171L24.0454 28.9648L23.8397 28.8682C23.1579 28.4708 22.8008 27.6974 22.8008 26.5374V24.4967C22.8008 23.3259 23.1579 22.1659 23.8397 20.9845C24.5323 19.803 25.3872 18.9222 26.3937 18.3422C27.4217 17.7515 28.2767 17.6548 28.9585 18.0522L33.5794 20.3508L37.4104 22.2411L42.3993 24.7222L50.2777 28.6319V28.6534H50.2992Z" stroke="black"/>
<path d="M62.4094 22.8853V26.9776C62.4094 27.2568 62.3877 27.5361 62.3445 27.8153C62.2254 28.7068 61.9117 29.5876 61.3814 30.4898C61.0351 31.0805 60.6562 31.5853 60.2342 32.0257C59.8013 32.4661 59.3361 32.842 58.8166 33.132C57.8102 33.712 56.9551 33.8194 56.2625 33.4327C55.5699 33.0353 55.2236 32.262 55.2236 31.102V27.0098C55.2236 26.1935 55.3968 25.3664 55.7431 24.5394C55.8838 24.1957 56.0569 23.852 56.2625 23.5083C56.9551 22.3161 57.8102 21.4353 58.8166 20.8661C59.7473 20.329 60.5156 20.2002 61.1757 20.4687L61.3814 20.5653C62.074 20.9627 62.4094 21.7361 62.4094 22.8853Z" stroke="black"/>
<path d="M51.6312 31.1131V33.1539C51.6312 33.5083 51.5986 33.8628 51.5337 34.2172C51.393 35.0335 51.0791 35.8498 50.603 36.6661C49.9212 37.8476 49.0663 38.7283 48.0382 39.3083C47.0318 39.8883 46.1768 39.9957 45.4842 39.6091C44.8024 39.2116 44.4453 38.4383 44.4453 37.2783V35.2376C44.4453 34.0668 44.8024 32.9068 45.4842 31.7254C46.1227 30.6405 46.8911 29.8028 47.8001 29.2335C47.8759 29.1798 47.9516 29.1261 48.0382 29.0831C48.9148 28.5783 49.6722 28.4387 50.2999 28.6535L50.3649 28.675L50.603 28.7931C51.2956 29.1798 51.6312 29.9531 51.6312 31.1131Z" stroke="black"/>
<path d="M61.1748 20.4686C60.5147 20.2001 59.7464 20.329 58.8158 20.8661C57.8093 21.4353 56.9543 22.3161 56.2617 23.5083C56.0561 23.852 55.8829 24.1957 55.7422 24.5394C55.3959 25.3664 55.2228 26.1935 55.2228 27.0098V31.102C55.2228 32.262 55.5691 33.0353 56.2617 33.4327L51.63 31.1342V31.1127C51.63 29.9527 51.2944 29.1794 50.6018 28.7927L50.3637 28.6746L50.2988 28.6531V28.6316L42.4206 24.722L37.4317 22.2409L33.6006 20.3505V16.269C33.6006 15.109 33.9469 13.9383 34.6395 12.7675C35.3321 11.5753 36.187 10.6946 37.1935 10.1253C38.2215 9.53459 39.0657 9.43791 39.7583 9.82458L44.3792 12.1231L61.1965 20.4686H61.1748Z" stroke="black"/>
<path d="M74.887 13.09C73.9131 12.6926 72.7336 12.8752 71.3917 13.6593C69.8982 14.5185 68.6211 15.8396 67.5822 17.6333C66.5217 19.427 66.0022 21.1779 66.0022 22.8857V26.9778C66.0022 28.6748 66.5217 29.8241 67.5822 30.4148L62.3444 27.8157C62.3877 27.5364 62.4094 27.257 62.4094 26.9778V22.8857C62.4094 21.7364 62.074 20.963 61.3814 20.5656L61.1757 20.469L44.3584 12.1233C44.3584 10.4263 44.8778 8.67561 45.9384 6.89265C46.9773 5.09894 48.2544 3.77783 49.7478 2.91857C51.2412 2.04857 52.5289 1.91968 53.5678 2.51042L74.887 13.09Z" stroke="black"/>
</svg>
