<svg width="119" height="91" viewBox="0 0 119 91" fill="none" xmlns="http://www.w3.org/2000/svg">
<path d="M68.0553 68.8731V88.8731L58.2053 83.1831L43.4253 74.6631V54.6631L44.3253 55.1731L58.2053 63.1831L60.7453 64.6631L68.0553 68.8731Z" stroke="black"/>
<path d="M55.5556 28.7031V47.6631L43.4256 54.6631V55.7031L26.9956 65.1731V45.1731L55.5556 28.7031Z" stroke="black"/>
<path d="M26.9955 45.1731V65.1731L17.1555 59.4931L2.37549 50.9731V30.9731L17.1555 39.4931L19.6955 40.9731L26.9955 45.1731Z" stroke="black"/>
<path d="M117.006 40.6133V60.6133L113.246 62.8033L68.0557 88.8733V68.8733L112.596 43.1733L113.246 42.8033L117.006 40.6133Z" stroke="black"/>
<path d="M117.005 40.6131L113.246 42.8031L112.595 43.1731L68.0555 68.8731L60.7455 64.6631L58.2055 63.1831L44.3255 55.1731L43.4255 54.6631L55.5555 47.6631L57.1955 46.7131L71.9855 38.1731L55.5555 28.7031L26.9955 45.1731L19.6955 40.9731L17.1555 39.4931L2.37549 30.9731L51.3255 2.70312L108.646 7.53314L117.005 40.6131Z" stroke="black"/>
<path d="M71.9857 38.1731L57.1957 46.7131L55.5557 47.6631V28.7031L71.9857 38.1731Z" stroke="black"/>
</svg>
