<svg width="48" height="48" viewBox="0 0 48 48" fill="none" xmlns="http://www.w3.org/2000/svg">
<path fill-rule="evenodd" clip-rule="evenodd" d="M11.624 2.69678C6.69364 2.69678 2.69678 6.69363 2.69678 11.624V35.43C2.69678 40.3602 6.69364 44.3573 11.624 44.3573H35.43C40.3603 44.3573 44.357 40.3602 44.357 35.43V11.624C44.357 6.69363 40.3603 2.69678 35.43 2.69678H11.624ZM37.9998 11.6369C37.9998 13.0571 36.8484 14.2084 35.4283 14.2084C34.0081 14.2084 32.8569 13.0571 32.8569 11.6369C32.8569 10.2168 34.0081 9.06552 35.4283 9.06552C36.8484 9.06552 37.9998 10.2168 37.9998 11.6369ZM23.5274 16.3952C19.5887 16.3952 16.3958 19.5881 16.3958 23.5268C16.3958 27.4655 19.5887 30.6584 23.5274 30.6584C27.4661 30.6584 30.659 27.4655 30.659 23.5268C30.659 19.5881 27.4661 16.3952 23.5274 16.3952ZM12.9672 23.5268C12.9672 17.6945 17.6952 12.9666 23.5274 12.9666C29.3596 12.9666 34.0876 17.6945 34.0876 23.5268C34.0876 29.359 29.3596 34.087 23.5274 34.087C17.6952 34.087 12.9672 29.359 12.9672 23.5268Z" fill="black"/>
</svg>
