<svg width="64" height="60" viewBox="0 0 64 60" fill="none" xmlns="http://www.w3.org/2000/svg">
<path d="M32 0.213379C14.3467 0.213379 0 13.3334 0 29.4667C0.0049648 36.0248 2.3608 42.3638 6.64 47.3334C6.75524 47.4674 6.82112 47.6368 6.82667 47.8134V55.0667C6.82227 55.8739 7.02611 56.6685 7.4185 57.3739C7.81089 58.0792 8.37856 58.6715 9.06667 59.0934C9.81017 59.5566 10.6708 59.7972 11.5467 59.7867C12.274 59.7954 12.994 59.6404 13.6533 59.3334L19.1733 56.6667C19.2661 56.6271 19.3658 56.6067 19.4667 56.6067C19.5675 56.6067 19.6673 56.6271 19.76 56.6667C23.6694 58.153 27.8176 58.9121 32 58.9067C49.6533 58.9067 64 45.7867 64 29.5734C64 13.36 49.6533 0.213379 32 0.213379ZM48 22.6667L38.7733 37.44C38.5882 37.7382 38.3459 37.9968 38.0606 38.2011C37.7752 38.4054 37.4524 38.5514 37.1105 38.6307C36.7686 38.71 36.4144 38.721 36.0683 38.6631C35.7221 38.6052 35.3908 38.4796 35.0933 38.2934L28.08 33.8934C27.6746 33.6593 27.2148 33.5361 26.7467 33.5361C26.2786 33.5361 25.8187 33.6593 25.4133 33.8934L17.6533 38.4534C17.3934 38.6011 17.0934 38.6627 16.7963 38.6291C16.4992 38.5956 16.2204 38.4687 16 38.2667C15.7882 38.0582 15.6522 37.7848 15.6135 37.4901C15.5749 37.1954 15.6358 36.8962 15.7867 36.64L24 22.1334C24.1751 21.8196 24.4119 21.5445 24.696 21.3246C24.9801 21.1046 25.3057 20.9443 25.6533 20.8534C26.0036 20.7628 26.3687 20.7445 26.7262 20.7995C27.0838 20.8545 27.4265 20.9817 27.7333 21.1734L34.6667 25.5467C35.0721 25.7808 35.5319 25.904 36 25.904C36.4681 25.904 36.9279 25.7808 37.3333 25.5467L46.1867 20.72C46.4444 20.5777 46.7426 20.5266 47.0331 20.5751C47.3235 20.6235 47.589 20.7685 47.7867 20.9867C48.0208 21.1927 48.1716 21.4771 48.2109 21.7864C48.2502 22.0957 48.1752 22.4088 48 22.6667Z" fill="white"/>
</svg>
