<svg width="726" height="75" viewBox="0 0 726 75" fill="none" xmlns="http://www.w3.org/2000/svg">
<rect width="17.1272" height="75" fill="white"/>
<rect x="64.4785" width="17.1272" height="75" fill="white"/>
<rect x="128.958" width="17.1272" height="75" fill="white"/>
<rect x="193.437" width="17.1272" height="75" fill="white"/>
<rect x="257.915" width="17.1272" height="75" fill="white"/>
<rect x="322.394" width="17.1272" height="75" fill="white"/>
<rect x="386.873" width="17.1272" height="75" fill="white"/>
<rect x="451.239" width="17.1272" height="75" fill="white"/>
<rect x="515.606" width="17.1272" height="75" fill="white"/>
<rect x="579.973" width="17.1272" height="75" fill="white"/>
<rect x="644.339" width="17.1272" height="75" fill="white"/>
<rect x="708.706" width="17.1272" height="75" fill="white"/>
<rect x="32.2393" width="17.1272" height="75" fill="white"/>
<rect x="96.7183" width="17.1272" height="75" fill="white"/>
<rect x="161.197" width="17.1272" height="75" fill="white"/>
<rect x="225.676" width="17.1272" height="75" fill="white"/>
<rect x="290.155" width="17.1272" height="75" fill="white"/>
<rect x="354.633" width="17.1272" height="75" fill="white"/>
<rect x="419" width="17.1272" height="75" fill="white"/>
<rect x="483.367" width="17.1272" height="75" fill="white"/>
<rect x="547.733" width="17.1272" height="75" fill="white"/>
<rect x="612.1" width="17.1272" height="75" fill="white"/>
<rect x="676.467" width="17.1272" height="75" fill="white"/>
</svg>
