<svg width="62" height="62" viewBox="0 0 62 62" fill="none" xmlns="http://www.w3.org/2000/svg">
<path d="M22.6237 59.4283C19.6959 61.3192 16.2062 62.1437 12.7417 61.7632C9.27724 61.3827 6.04961 59.8204 3.60201 57.3392L1.46259 55.2454C0.524971 54.2863 0 52.9982 0 51.6569C0 50.3155 0.524971 49.0275 1.46259 48.0683L10.5414 39.0809C11.4929 38.1461 12.7734 37.6224 14.1072 37.6224C15.4409 37.6224 16.7214 38.1461 17.6729 39.0809C18.6323 40.0199 19.9213 40.5457 21.2637 40.5457C22.6062 40.5457 23.8952 40.0199 24.8546 39.0809L39.1174 24.818C39.5933 24.3489 39.9712 23.7899 40.2291 23.1734C40.4871 22.557 40.6199 21.8954 40.6199 21.2272C40.6199 20.5589 40.4871 19.8974 40.2291 19.2809C39.9712 18.6645 39.5933 18.1054 39.1174 17.6363C38.1827 16.6848 37.659 15.4044 37.659 14.0706C37.659 12.7368 38.1827 11.4563 39.1174 10.5049L48.1597 1.46259C49.1189 0.524971 50.407 0 51.7483 0C53.0896 0 54.3777 0.524971 55.3369 1.46259L57.4306 3.60202C59.9107 6.0492 61.4726 9.2756 61.8539 12.7388C62.2352 16.2021 61.4126 19.691 59.5243 22.6192C49.6812 37.1274 37.1564 49.6212 22.6237 59.4283Z" fill="white"/>
</svg>
