<svg width="48" height="48" viewBox="0 0 48 48" fill="none" xmlns="http://www.w3.org/2000/svg">
<path d="M25.5724 33.5673H40.5904C44.7598 33.5559 47.3538 29.0353 45.2592 25.4299C43.895 23.0815 41.0024 22.1065 38.4948 23.1499C37.9298 16.8096 31.4428 12.7814 25.5092 15.0865C25.0974 15.2436 24.9882 15.4064 24.9844 15.7224V32.9275C24.9824 33.2619 25.239 33.5411 25.5724 33.5673Z" fill="#FFBC44"/>
<path d="M40.5902 22.7383C39.8708 22.7381 39.1588 22.8809 38.4948 23.1579C37.9298 16.8174 31.4428 12.7892 25.5092 15.0943C25.0974 15.2495 24.9882 15.4123 24.9844 15.7302V20.5453C32.5174 20.5483 38.8938 26.1073 39.9238 33.5693H40.5902C44.7614 33.4585 47.2484 28.8739 45.0668 25.3171C44.1078 23.7537 42.4236 22.7813 40.5902 22.7325V22.7383Z" fill="#FFDDA1"/>
<path d="M25.5724 33.5673H40.5904C44.7598 33.5559 47.3538 29.0353 45.2592 25.4299C43.895 23.0815 41.0024 22.1065 38.4948 23.1499C37.9298 16.8096 31.4428 12.7814 25.5092 15.0865C25.0974 15.2436 24.9882 15.4064 24.9844 15.7224V32.9275C24.9824 33.2619 25.239 33.5411 25.5724 33.5673Z" stroke="#191919" stroke-linecap="round" stroke-linejoin="round"/>
<path d="M21.1533 16.3184V33.5674" stroke="#191919" stroke-linecap="round" stroke-linejoin="round"/>
<path d="M17.3232 18.2334V33.5672" stroke="#191919" stroke-linecap="round" stroke-linejoin="round"/>
<path d="M13.4932 19.1909V33.5673" stroke="#191919" stroke-linecap="round" stroke-linejoin="round"/>
<path d="M9.66113 23.0215V33.5673" stroke="#191919" stroke-linecap="round" stroke-linejoin="round"/>
<path d="M5.83008 23.0215V33.5673" stroke="#191919" stroke-linecap="round" stroke-linejoin="round"/>
<path d="M2 24.9424V32.5864" stroke="#191919" stroke-linecap="round" stroke-linejoin="round"/>
</svg>
