<svg width="1498" height="75" viewBox="0 0 1498 75" fill="none" xmlns="http://www.w3.org/2000/svg">
<rect width="17.1272" height="75" fill="white"/>
<rect x="64.4785" width="17.1272" height="75" fill="white"/>
<rect x="128.958" width="17.1272" height="75" fill="white"/>
<rect x="193.437" width="17.1272" height="75" fill="white"/>
<rect x="257.915" width="17.1272" height="75" fill="white"/>
<rect x="322.394" width="17.1272" height="75" fill="white"/>
<rect x="386.873" width="17.1272" height="75" fill="white"/>
<rect x="451.239" width="17.1272" height="75" fill="white"/>
<rect x="515.606" width="17.1272" height="75" fill="white"/>
<rect x="579.973" width="17.1272" height="75" fill="white"/>
<rect x="644.339" width="17.1272" height="75" fill="white"/>
<rect x="708.706" width="17.1272" height="75" fill="white"/>
<rect x="773.073" width="17.1272" height="75" fill="white"/>
<rect x="837.439" width="17.1272" height="75" fill="white"/>
<rect x="901.806" width="17.1272" height="75" fill="white"/>
<rect x="966.173" width="17.1272" height="75" fill="white"/>
<rect x="1030.54" width="17.1272" height="75" fill="white"/>
<rect x="1094.91" width="17.1272" height="75" fill="white"/>
<rect x="1159.27" width="17.1272" height="75" fill="white"/>
<rect x="1223.64" width="17.1272" height="75" fill="white"/>
<rect x="1288.01" width="17.1272" height="75" fill="white"/>
<rect x="1352.24" width="17.1272" height="75" fill="white"/>
<rect x="1416.47" width="17.1272" height="75" fill="white"/>
<rect x="1480.71" width="17.1272" height="75" fill="white"/>
<rect x="32.2393" width="17.1272" height="75" fill="white"/>
<rect x="96.7183" width="17.1272" height="75" fill="white"/>
<rect x="161.197" width="17.1272" height="75" fill="white"/>
<rect x="225.676" width="17.1272" height="75" fill="white"/>
<rect x="290.155" width="17.1272" height="75" fill="white"/>
<rect x="354.633" width="17.1272" height="75" fill="white"/>
<rect x="419" width="17.1272" height="75" fill="white"/>
<rect x="483.367" width="17.1272" height="75" fill="white"/>
<rect x="547.733" width="17.1272" height="75" fill="white"/>
<rect x="612.1" width="17.1272" height="75" fill="white"/>
<rect x="676.467" width="17.1272" height="75" fill="white"/>
<rect x="740.833" width="17.1272" height="75" fill="white"/>
<rect x="805.2" width="17.1272" height="75" fill="white"/>
<rect x="869.567" width="17.1272" height="75" fill="white"/>
<rect x="933.934" width="17.1272" height="75" fill="white"/>
<rect x="998.3" width="17.1272" height="75" fill="white"/>
<rect x="1062.67" width="17.1272" height="75" fill="white"/>
<rect x="1127.03" width="17.1272" height="75" fill="white"/>
<rect x="1191.4" width="17.1272" height="75" fill="white"/>
<rect x="1255.77" width="17.1272" height="75" fill="white"/>
<rect x="1320" width="17.1272" height="75" fill="white"/>
<rect x="1384.23" width="17.1272" height="75" fill="white"/>
<rect x="1448.47" width="17.1272" height="75" fill="white"/>
</svg>
