<svg width="64" height="64" viewBox="0 0 64 64" fill="none" xmlns="http://www.w3.org/2000/svg">
<path d="M46.5919 38.3521C45.7999 37.9548 41.9039 36.0401 41.1785 35.7734C40.4505 35.5094 39.9225 35.3788 39.3919 36.1734C38.8665 36.9654 37.3465 38.7494 36.8852 39.2774C36.4239 39.8081 35.9599 39.8721 35.1679 39.4774C34.3759 39.0774 31.8212 38.2428 28.7945 35.5441C26.4399 33.4428 24.8479 30.8481 24.3865 30.0534C23.9252 29.2614 24.3385 28.8321 24.7332 28.4374C25.0905 28.0828 25.5279 27.5121 25.9225 27.0508C26.3199 26.5868 26.4505 26.2561 26.7172 25.7254C26.9812 25.1974 26.8505 24.7361 26.6505 24.3388C26.4505 23.9414 24.8665 20.0401 24.2079 18.4534C23.5625 16.9094 22.9092 17.1201 22.4239 17.0934C21.9625 17.0721 21.4345 17.0668 20.9039 17.0668C20.3759 17.0668 19.5172 17.2641 18.7919 18.0588C18.0665 18.8508 16.0185 20.7681 16.0185 24.6694C16.0185 28.5681 18.8585 32.3361 19.2532 32.8668C19.6505 33.3948 24.8425 41.4001 32.7919 44.8321C34.6825 45.6481 36.1572 46.1361 37.3092 46.4988C39.2079 47.1041 40.9359 47.0188 42.2985 46.8134C43.8212 46.5868 46.9865 44.8961 47.6479 43.0454C48.3092 41.1948 48.3092 39.6081 48.1092 39.2774C47.9119 38.9468 47.3865 38.7494 46.5919 38.3521ZM32.1332 58.0934H32.1225C27.4019 58.0938 22.7681 56.8246 18.7065 54.4188L17.7439 53.8481L7.76786 56.4668L10.4292 46.7388L9.80252 45.7414C7.16369 41.5395 5.7677 36.6766 5.77586 31.7148C5.77852 17.1814 17.6052 5.35744 32.1439 5.35744C39.1839 5.35744 45.8025 8.10411 50.7785 13.0854C53.2337 15.5298 55.1797 18.4367 56.5039 21.6381C57.8281 24.8395 58.5042 28.2717 58.4932 31.7361C58.4852 46.2694 46.6612 58.0934 32.1332 58.0934ZM54.5679 9.30144C51.6297 6.3439 48.1338 3.99887 44.2828 2.40224C40.4317 0.805613 36.3021 -0.01087 32.1332 0.000109273C14.6532 0.000109273 0.426522 14.2268 0.418522 31.7121C0.418522 37.3014 1.87719 42.7574 4.65319 47.5654L0.151855 64.0001L16.9652 59.5894C21.6148 62.1226 26.825 63.4501 32.1199 63.4508H32.1332C49.6105 63.4508 63.8399 49.2241 63.8479 31.7361C63.8608 27.5688 63.0472 23.4404 61.4543 19.5895C59.8615 15.7387 57.5208 12.2419 54.5679 9.30144Z" fill="white"/>
</svg>
